<mxfile host="app.diagrams.net" modified="2022-02-24T09:44:10.506Z" agent="5.0 (Windows NT 10.0; Win64; x64) AppleWebKit/537.36 (KHTML, like Gecko) Chrome/100.0.4863.0 Safari/537.36 Edg/100.0.1163.1" etag="II-7Cp2u5oXJcq6OR4DI" version="16.6.2" type="github">
  <diagram id="C5RBs43oDa-KdzZeNtuy" name="Page-1">
    <mxGraphModel dx="573" dy="375" grid="1" gridSize="10" guides="1" tooltips="1" connect="1" arrows="1" fold="1" page="1" pageScale="1" pageWidth="827" pageHeight="1169" math="0" shadow="0">
      <root>
        <mxCell id="WIyWlLk6GJQsqaUBKTNV-0" />
        <mxCell id="WIyWlLk6GJQsqaUBKTNV-1" parent="WIyWlLk6GJQsqaUBKTNV-0" />
        <mxCell id="bUFwaTmRENJA-o16fBD3-1" style="edgeStyle=orthogonalEdgeStyle;rounded=0;orthogonalLoop=1;jettySize=auto;html=1;entryX=0.5;entryY=0;entryDx=0;entryDy=0;fontSize=10;" edge="1" parent="WIyWlLk6GJQsqaUBKTNV-1" source="WIyWlLk6GJQsqaUBKTNV-3" target="bUFwaTmRENJA-o16fBD3-0">
          <mxGeometry relative="1" as="geometry" />
        </mxCell>
        <mxCell id="WIyWlLk6GJQsqaUBKTNV-3" value="开始" style="rounded=1;whiteSpace=wrap;html=1;fontSize=10;glass=0;strokeWidth=1;shadow=0;" parent="WIyWlLk6GJQsqaUBKTNV-1" vertex="1">
          <mxGeometry x="190" y="50" width="60" height="30" as="geometry" />
        </mxCell>
        <mxCell id="bUFwaTmRENJA-o16fBD3-4" style="edgeStyle=orthogonalEdgeStyle;rounded=0;orthogonalLoop=1;jettySize=auto;html=1;exitX=0.5;exitY=1;exitDx=0;exitDy=0;entryX=0.5;entryY=0;entryDx=0;entryDy=0;fontFamily=Helvetica;fontSize=10;" edge="1" parent="WIyWlLk6GJQsqaUBKTNV-1" source="WIyWlLk6GJQsqaUBKTNV-6" target="bUFwaTmRENJA-o16fBD3-3">
          <mxGeometry relative="1" as="geometry" />
        </mxCell>
        <mxCell id="bUFwaTmRENJA-o16fBD3-6" value="是" style="edgeLabel;html=1;align=center;verticalAlign=middle;resizable=0;points=[];fontFamily=Helvetica;fontSize=10;" vertex="1" connectable="0" parent="bUFwaTmRENJA-o16fBD3-4">
          <mxGeometry x="-0.2098" relative="1" as="geometry">
            <mxPoint x="10" y="3" as="offset" />
          </mxGeometry>
        </mxCell>
        <mxCell id="bUFwaTmRENJA-o16fBD3-10" style="edgeStyle=orthogonalEdgeStyle;rounded=0;orthogonalLoop=1;jettySize=auto;html=1;exitX=1;exitY=0.5;exitDx=0;exitDy=0;entryX=0;entryY=0.5;entryDx=0;entryDy=0;fontFamily=Helvetica;fontSize=10;" edge="1" parent="WIyWlLk6GJQsqaUBKTNV-1" source="WIyWlLk6GJQsqaUBKTNV-6" target="bUFwaTmRENJA-o16fBD3-9">
          <mxGeometry relative="1" as="geometry" />
        </mxCell>
        <mxCell id="bUFwaTmRENJA-o16fBD3-11" value="否" style="edgeLabel;html=1;align=center;verticalAlign=middle;resizable=0;points=[];fontFamily=Helvetica;fontSize=10;" vertex="1" connectable="0" parent="bUFwaTmRENJA-o16fBD3-10">
          <mxGeometry x="-0.3197" y="-1" relative="1" as="geometry">
            <mxPoint x="-4" y="-11" as="offset" />
          </mxGeometry>
        </mxCell>
        <mxCell id="WIyWlLk6GJQsqaUBKTNV-6" value="&lt;font style=&quot;font-size: 11px&quot;&gt;从数据库查询&lt;br style=&quot;font-size: 11px&quot;&gt;是否已预标注&lt;/font&gt;" style="rhombus;whiteSpace=wrap;html=1;shadow=0;fontFamily=Helvetica;fontSize=10;align=center;strokeWidth=1;spacing=6;spacingTop=-4;" parent="WIyWlLk6GJQsqaUBKTNV-1" vertex="1">
          <mxGeometry x="155" y="160" width="130" height="60" as="geometry" />
        </mxCell>
        <mxCell id="bUFwaTmRENJA-o16fBD3-2" style="edgeStyle=orthogonalEdgeStyle;rounded=0;orthogonalLoop=1;jettySize=auto;html=1;exitX=0.5;exitY=1;exitDx=0;exitDy=0;entryX=0.5;entryY=0;entryDx=0;entryDy=0;fontSize=10;" edge="1" parent="WIyWlLk6GJQsqaUBKTNV-1" source="bUFwaTmRENJA-o16fBD3-0" target="WIyWlLk6GJQsqaUBKTNV-6">
          <mxGeometry relative="1" as="geometry" />
        </mxCell>
        <mxCell id="bUFwaTmRENJA-o16fBD3-0" value="接收数据标注请求" style="rounded=0;whiteSpace=wrap;html=1;fontSize=10;" vertex="1" parent="WIyWlLk6GJQsqaUBKTNV-1">
          <mxGeometry x="160" y="100" width="120" height="40" as="geometry" />
        </mxCell>
        <mxCell id="bUFwaTmRENJA-o16fBD3-8" style="edgeStyle=orthogonalEdgeStyle;rounded=0;orthogonalLoop=1;jettySize=auto;html=1;exitX=0.5;exitY=1;exitDx=0;exitDy=0;entryX=0.5;entryY=0;entryDx=0;entryDy=0;fontFamily=Helvetica;fontSize=10;" edge="1" parent="WIyWlLk6GJQsqaUBKTNV-1" source="bUFwaTmRENJA-o16fBD3-3" target="bUFwaTmRENJA-o16fBD3-7">
          <mxGeometry relative="1" as="geometry" />
        </mxCell>
        <mxCell id="bUFwaTmRENJA-o16fBD3-3" value="返回预标注数据" style="rounded=0;whiteSpace=wrap;html=1;fontSize=10;" vertex="1" parent="WIyWlLk6GJQsqaUBKTNV-1">
          <mxGeometry x="160" y="240" width="120" height="40" as="geometry" />
        </mxCell>
        <mxCell id="bUFwaTmRENJA-o16fBD3-7" value="完成" style="rounded=1;whiteSpace=wrap;html=1;fontSize=10;glass=0;strokeWidth=1;shadow=0;" vertex="1" parent="WIyWlLk6GJQsqaUBKTNV-1">
          <mxGeometry x="190" y="300" width="60" height="30" as="geometry" />
        </mxCell>
        <mxCell id="bUFwaTmRENJA-o16fBD3-12" style="edgeStyle=orthogonalEdgeStyle;rounded=0;orthogonalLoop=1;jettySize=auto;html=1;exitX=0.5;exitY=0;exitDx=0;exitDy=0;fontFamily=Helvetica;entryX=0.5;entryY=1;entryDx=0;entryDy=0;fontSize=10;" edge="1" parent="WIyWlLk6GJQsqaUBKTNV-1" source="bUFwaTmRENJA-o16fBD3-9" target="bUFwaTmRENJA-o16fBD3-13">
          <mxGeometry relative="1" as="geometry">
            <mxPoint x="380.1428571428571" y="140" as="targetPoint" />
          </mxGeometry>
        </mxCell>
        <mxCell id="bUFwaTmRENJA-o16fBD3-9" value="调用算法SDK进行匹配" style="rounded=0;whiteSpace=wrap;html=1;fontSize=10;" vertex="1" parent="WIyWlLk6GJQsqaUBKTNV-1">
          <mxGeometry x="310" y="170" width="140" height="40" as="geometry" />
        </mxCell>
        <mxCell id="bUFwaTmRENJA-o16fBD3-16" style="edgeStyle=orthogonalEdgeStyle;rounded=0;orthogonalLoop=1;jettySize=auto;html=1;exitX=1;exitY=0.5;exitDx=0;exitDy=0;entryX=0;entryY=0.5;entryDx=0;entryDy=0;fontFamily=Helvetica;fontSize=11;" edge="1" parent="WIyWlLk6GJQsqaUBKTNV-1" source="bUFwaTmRENJA-o16fBD3-13" target="bUFwaTmRENJA-o16fBD3-15">
          <mxGeometry relative="1" as="geometry" />
        </mxCell>
        <mxCell id="bUFwaTmRENJA-o16fBD3-17" value="是" style="edgeLabel;html=1;align=center;verticalAlign=middle;resizable=0;points=[];fontSize=11;fontFamily=Helvetica;" vertex="1" connectable="0" parent="bUFwaTmRENJA-o16fBD3-16">
          <mxGeometry x="-0.239" relative="1" as="geometry">
            <mxPoint y="-10" as="offset" />
          </mxGeometry>
        </mxCell>
        <mxCell id="bUFwaTmRENJA-o16fBD3-22" style="edgeStyle=orthogonalEdgeStyle;rounded=0;orthogonalLoop=1;jettySize=auto;html=1;exitX=0.5;exitY=0;exitDx=0;exitDy=0;fontFamily=Helvetica;fontSize=11;entryX=0;entryY=0.5;entryDx=0;entryDy=0;" edge="1" parent="WIyWlLk6GJQsqaUBKTNV-1" source="bUFwaTmRENJA-o16fBD3-13" target="bUFwaTmRENJA-o16fBD3-21">
          <mxGeometry relative="1" as="geometry">
            <mxPoint x="510" y="50" as="targetPoint" />
            <Array as="points">
              <mxPoint x="380" y="70" />
            </Array>
          </mxGeometry>
        </mxCell>
        <mxCell id="bUFwaTmRENJA-o16fBD3-23" value="否" style="edgeLabel;html=1;align=center;verticalAlign=middle;resizable=0;points=[];fontSize=11;fontFamily=Helvetica;" vertex="1" connectable="0" parent="bUFwaTmRENJA-o16fBD3-22">
          <mxGeometry x="-0.3587" relative="1" as="geometry">
            <mxPoint x="18" y="-10" as="offset" />
          </mxGeometry>
        </mxCell>
        <mxCell id="bUFwaTmRENJA-o16fBD3-13" value="是否进入人工复核" style="rhombus;whiteSpace=wrap;html=1;shadow=0;fontFamily=Helvetica;fontSize=10;align=center;strokeWidth=1;spacing=6;spacingTop=-4;" vertex="1" parent="WIyWlLk6GJQsqaUBKTNV-1">
          <mxGeometry x="315" y="90" width="130" height="60" as="geometry" />
        </mxCell>
        <mxCell id="bUFwaTmRENJA-o16fBD3-19" value="" style="edgeStyle=orthogonalEdgeStyle;rounded=0;orthogonalLoop=1;jettySize=auto;html=1;fontFamily=Helvetica;fontSize=11;" edge="1" parent="WIyWlLk6GJQsqaUBKTNV-1" source="bUFwaTmRENJA-o16fBD3-15" target="bUFwaTmRENJA-o16fBD3-18">
          <mxGeometry relative="1" as="geometry" />
        </mxCell>
        <mxCell id="bUFwaTmRENJA-o16fBD3-15" value="生成待复核数据" style="rounded=0;whiteSpace=wrap;html=1;fontSize=10;" vertex="1" parent="WIyWlLk6GJQsqaUBKTNV-1">
          <mxGeometry x="470" y="100" width="120" height="40" as="geometry" />
        </mxCell>
        <mxCell id="bUFwaTmRENJA-o16fBD3-20" style="edgeStyle=orthogonalEdgeStyle;rounded=0;orthogonalLoop=1;jettySize=auto;html=1;exitX=0;exitY=0.5;exitDx=0;exitDy=0;entryX=1;entryY=0.5;entryDx=0;entryDy=0;fontFamily=Helvetica;fontSize=11;" edge="1" parent="WIyWlLk6GJQsqaUBKTNV-1" source="bUFwaTmRENJA-o16fBD3-18" target="bUFwaTmRENJA-o16fBD3-3">
          <mxGeometry relative="1" as="geometry" />
        </mxCell>
        <mxCell id="bUFwaTmRENJA-o16fBD3-18" value="组织为预标注数据&lt;br&gt;存入数据库中" style="rounded=0;whiteSpace=wrap;html=1;fontSize=10;" vertex="1" parent="WIyWlLk6GJQsqaUBKTNV-1">
          <mxGeometry x="470" y="240" width="120" height="40" as="geometry" />
        </mxCell>
        <mxCell id="bUFwaTmRENJA-o16fBD3-24" style="edgeStyle=orthogonalEdgeStyle;rounded=0;orthogonalLoop=1;jettySize=auto;html=1;exitX=1;exitY=0.5;exitDx=0;exitDy=0;entryX=1;entryY=0.5;entryDx=0;entryDy=0;fontFamily=Helvetica;fontSize=11;" edge="1" parent="WIyWlLk6GJQsqaUBKTNV-1" source="bUFwaTmRENJA-o16fBD3-21" target="bUFwaTmRENJA-o16fBD3-18">
          <mxGeometry relative="1" as="geometry" />
        </mxCell>
        <mxCell id="bUFwaTmRENJA-o16fBD3-21" value="生成成功数据" style="rounded=0;whiteSpace=wrap;html=1;fontSize=10;" vertex="1" parent="WIyWlLk6GJQsqaUBKTNV-1">
          <mxGeometry x="470" y="50" width="120" height="40" as="geometry" />
        </mxCell>
      </root>
    </mxGraphModel>
  </diagram>
</mxfile>
